<svg width="40" height="40" viewBox="0 0 40 40" fill="none" xmlns="http://www.w3.org/2000/svg">
<path d="M35.0168 16.668H30.2668C30.7168 14.968 31.9501 12.4846 35.4168 11.618L36.6834 11.3013V6.66797H35.0168C30.3834 6.66797 26.8334 7.9513 24.5001 10.4846C21.3501 13.9013 21.6668 18.2846 21.6834 18.3346V30.0013C21.6834 31.8346 23.1834 33.3346 25.0168 33.3346H35.0168C36.8501 33.3346 38.3501 31.8346 38.3501 30.0013V20.0013C38.3501 18.168 36.8501 16.668 35.0168 16.668ZM15.0168 16.668H10.2668C10.7168 14.968 11.9501 12.4846 15.4168 11.618L16.6834 11.3013V6.66797H15.0168C10.3834 6.66797 6.83344 7.9513 4.50011 10.4846C1.35011 13.9013 1.66678 18.2846 1.68344 18.3346V30.0013C1.68344 31.8346 3.18344 33.3346 5.01678 33.3346H15.0168C16.8501 33.3346 18.3501 31.8346 18.3501 30.0013V20.0013C18.3501 18.168 16.8501 16.668 15.0168 16.668Z" fill="#9C2D1D"/>
</svg>
