<svg width="712" height="234" viewBox="0 0 712 234" fill="none" xmlns="http://www.w3.org/2000/svg">
<path d="M23.0077 148.972C11.8039 166.577 3.50117 212.493 0 234H709.237C710.07 226.331 711.738 210.292 711.738 207.491C711.738 203.99 710.737 179.482 706.236 158.475C701.734 137.468 695.232 120.462 691.231 109.458C688.03 100.655 671.724 87.1176 664.722 81.9492C656.219 74.6135 637.613 59.4417 631.211 57.4411C624.809 55.4404 558.853 25.5978 526.676 10.9265C440.647 6.42502 266.989 -1.97779 260.587 0.423015C254.185 2.82382 205.902 30.0996 182.561 43.4374C170.557 46.4384 145.048 64.4444 141.047 67.4454C137.846 69.8462 124.041 77.1153 117.539 80.4497C93.1311 86.8519 58.3528 108.958 44.0147 120.462C40.5135 119.962 34.2114 131.366 23.0077 148.972Z" fill="url(#paint0_linear_438_842)"/>
<defs>
<linearGradient id="paint0_linear_438_842" x1="355.619" y1="52.4394" x2="355.619" y2="234.5" gradientUnits="userSpaceOnUse">
<stop stop-color="#280202" stop-opacity="0"/>
<stop offset="0.608443" stop-color="#280202" stop-opacity="0.89"/>
<stop offset="0.718683" stop-color="#280202" stop-opacity="0.95194"/>
<stop offset="1" stop-color="#230101"/>
</linearGradient>
</defs>
</svg>
